<svg fill="#000000" xmlns="http://www.w3.org/2000/svg"  viewBox="0 0 80 80" width="160px" height="160px"><path d="M 14 10 C 11.800781 10 10 11.800781 10 14 L 10 66 C 10 68.199219 11.800781 70 14 70 L 66 70 C 68.199219 70 70 68.199219 70 66 L 70 14 C 70 11.800781 68.199219 10 66 10 Z M 14 12 L 66 12 C 67.117188 12 68 12.882813 68 14 L 68 66 C 68 67.117188 67.117188 68 66 68 L 14 68 C 12.882813 68 12 67.117188 12 66 L 12 40.242188 L 18.394531 46.640625 C 17.507813 48.226563 17 50.058594 17 52 C 17 58.0625 21.9375 63 28 63 C 34.0625 63 39 58.0625 39 52 C 39 51.847656 38.984375 51.710938 38.980469 51.5625 L 47.933594 44.941406 C 48.285156 44.96875 48.636719 45 49 45 C 56.71875 45 63 38.71875 63 31 C 63 23.28125 56.71875 17 49 17 C 41.28125 17 35 23.28125 35 31 C 35 31.363281 35.03125 31.714844 35.058594 32.066406 L 28.4375 41.019531 C 28.289063 41.015625 28.152344 41 28 41 C 26.058594 41 24.222656 41.507813 22.636719 42.394531 L 12 31.753906 L 12 14 C 12 12.882813 12.882813 12 14 12 Z M 18 17 C 17.449219 17 17 17.449219 17 18 C 17 18.550781 17.449219 19 18 19 C 18.550781 19 19 18.550781 19 18 C 19 17.449219 18.550781 17 18 17 Z M 22 17 C 21.449219 17 21 17.449219 21 18 C 21 18.550781 21.449219 19 22 19 C 22.550781 19 23 18.550781 23 18 C 23 17.449219 22.550781 17 22 17 Z M 26 17 C 25.449219 17 25 17.449219 25 18 C 25 18.550781 25.449219 19 26 19 C 26.550781 19 27 18.550781 27 18 C 27 17.449219 26.550781 17 26 17 Z M 30 17 C 29.449219 17 29 17.449219 29 18 C 29 18.550781 29.449219 19 30 19 C 30.550781 19 31 18.550781 31 18 C 31 17.449219 30.550781 17 30 17 Z M 49 19 C 55.640625 19 61 24.359375 61 31 C 61 37.640625 55.640625 43 49 43 C 48.574219 43 48.148438 42.976563 47.726563 42.933594 L 47.34375 42.890625 L 46.625 43.421875 C 46.570313 43.023438 46.28125 42.695313 45.894531 42.59375 C 45.808594 42.570313 45.714844 42.558594 45.625 42.558594 C 45.175781 42.5625 44.785156 42.867188 44.667969 43.300781 C 44.542969 43.769531 44.773438 44.261719 45.214844 44.464844 L 36.90625 50.609375 L 36.957031 51.167969 C 36.984375 51.453125 37 51.730469 37 52 C 37 56.984375 32.984375 61 28 61 C 23.015625 61 19 56.984375 19 52 C 19 50.609375 19.320313 49.296875 19.882813 48.125 L 21.40625 49.652344 C 21.144531 50.386719 21 51.175781 21 52 C 21 55.855469 24.144531 59 28 59 C 31.855469 59 35 55.855469 35 52 C 35 48.144531 31.855469 45 28 45 C 27.175781 45 26.386719 45.144531 25.652344 45.40625 L 24.125 43.878906 C 25.296875 43.320313 26.609375 43 28 43 C 28.269531 43 28.546875 43.015625 28.832031 43.042969 L 29.390625 43.09375 L 35.535156 34.785156 C 35.738281 35.226563 36.230469 35.457031 36.703125 35.332031 C 37.234375 35.1875 37.550781 34.640625 37.40625 34.109375 C 37.304688 33.71875 36.976563 33.429688 36.578125 33.375 L 37.109375 32.65625 L 37.066406 32.269531 C 37.023438 31.847656 37 31.425781 37 31 C 37 24.359375 42.359375 19 49 19 Z M 18 21 C 17.449219 21 17 21.449219 17 22 C 17 22.550781 17.449219 23 18 23 C 18.550781 23 19 22.550781 19 22 C 19 21.449219 18.550781 21 18 21 Z M 49 22 C 44.042969 22 40 26.042969 40 31 C 40 35.957031 44.042969 40 49 40 C 53.957031 40 58 35.957031 58 31 C 58 26.042969 53.957031 22 49 22 Z M 49 24 C 52.878906 24 56 27.121094 56 31 C 56 34.878906 52.878906 38 49 38 C 45.121094 38 42 34.878906 42 31 C 42 27.121094 45.121094 24 49 24 Z M 18 25 C 17.449219 25 17 25.449219 17 26 C 17 26.550781 17.449219 27 18 27 C 18.550781 27 19 26.550781 19 26 C 19 25.449219 18.550781 25 18 25 Z M 18 29 C 17.449219 29 17 29.449219 17 30 C 17 30.550781 17.449219 31 18 31 C 18.550781 31 19 30.550781 19 30 C 19 29.449219 18.550781 29 18 29 Z M 12 34.582031 L 28.707031 51.292969 C 28.890625 51.476563 29 51.71875 29 52 C 29 52.566406 28.566406 53 28 53 C 27.71875 53 27.476563 52.890625 27.292969 52.707031 L 12 37.414063 Z M 37.71875 36.5 C 37.550781 36.503906 37.386719 36.550781 37.242188 36.632813 C 37.011719 36.765625 36.84375 36.984375 36.773438 37.242188 C 36.707031 37.496094 36.742188 37.769531 36.875 38 C 37.007813 38.230469 37.226563 38.398438 37.484375 38.464844 C 37.738281 38.535156 38.011719 38.5 38.242188 38.363281 C 38.71875 38.089844 38.882813 37.476563 38.609375 37 C 38.425781 36.683594 38.082031 36.492188 37.71875 36.5 Z M 39.824219 39.191406 C 39.550781 39.1875 39.289063 39.292969 39.097656 39.484375 C 38.710938 39.875 38.710938 40.507813 39.097656 40.898438 C 39.488281 41.289063 40.125 41.289063 40.515625 40.898438 C 40.902344 40.507813 40.902344 39.875 40.515625 39.484375 C 40.328125 39.300781 40.082031 39.195313 39.824219 39.191406 Z M 42.453125 41.261719 C 42.109375 41.277344 41.800781 41.464844 41.632813 41.761719 C 41.355469 42.238281 41.519531 42.847656 42 43.125 C 42.226563 43.257813 42.5 43.292969 42.757813 43.226563 C 43.015625 43.15625 43.234375 42.988281 43.363281 42.761719 C 43.5 42.53125 43.535156 42.257813 43.464844 42 C 43.394531 41.742188 43.226563 41.523438 43 41.390625 C 42.832031 41.296875 42.640625 41.25 42.453125 41.261719 Z M 32.953125 42.34375 C 32.613281 42.359375 32.304688 42.546875 32.132813 42.839844 C 32 43.070313 31.964844 43.34375 32.03125 43.597656 C 32.101563 43.855469 32.269531 44.074219 32.5 44.207031 C 32.976563 44.484375 33.589844 44.316406 33.863281 43.839844 C 34.140625 43.363281 33.976563 42.75 33.5 42.472656 C 33.332031 42.378906 33.144531 42.332031 32.953125 42.34375 Z M 36.636719 46 C 36.46875 46.003906 36.304688 46.046875 36.15625 46.132813 C 35.679688 46.410156 35.515625 47.019531 35.792969 47.5 C 36.070313 47.976563 36.679688 48.140625 37.15625 47.863281 C 37.386719 47.734375 37.554688 47.515625 37.625 47.257813 C 37.695313 47 37.660156 46.726563 37.527344 46.5 C 37.34375 46.179688 37 45.988281 36.636719 46 Z M 28 47 C 30.773438 47 33 49.226563 33 52 C 33 54.773438 30.773438 57 28 57 C 25.226563 57 23 54.773438 23 52 C 23 51.761719 23.023438 51.527344 23.054688 51.296875 L 25.878906 54.121094 C 26.421875 54.664063 27.175781 55 28 55 C 29.644531 55 31 53.644531 31 52 C 31 51.175781 30.664063 50.421875 30.121094 49.878906 L 27.296875 47.054688 C 27.527344 47.023438 27.761719 47 28 47 Z M 62 49 C 61.449219 49 61 49.449219 61 50 C 61 50.550781 61.449219 51 62 51 C 62.550781 51 63 50.550781 63 50 C 63 49.449219 62.550781 49 62 49 Z M 62 53 C 61.449219 53 61 53.449219 61 54 C 61 54.550781 61.449219 55 62 55 C 62.550781 55 63 54.550781 63 54 C 63 53.449219 62.550781 53 62 53 Z M 62 57 C 61.449219 57 61 57.449219 61 58 C 61 58.550781 61.449219 59 62 59 C 62.550781 59 63 58.550781 63 58 C 63 57.449219 62.550781 57 62 57 Z M 50 61 C 49.449219 61 49 61.449219 49 62 C 49 62.550781 49.449219 63 50 63 C 50.550781 63 51 62.550781 51 62 C 51 61.449219 50.550781 61 50 61 Z M 54 61 C 53.449219 61 53 61.449219 53 62 C 53 62.550781 53.449219 63 54 63 C 54.550781 63 55 62.550781 55 62 C 55 61.449219 54.550781 61 54 61 Z M 58 61 C 57.449219 61 57 61.449219 57 62 C 57 62.550781 57.449219 63 58 63 C 58.550781 63 59 62.550781 59 62 C 59 61.449219 58.550781 61 58 61 Z M 62 61 C 61.449219 61 61 61.449219 61 62 C 61 62.550781 61.449219 63 62 63 C 62.550781 63 63 62.550781 63 62 C 63 61.449219 62.550781 61 62 61 Z"/></svg>