<svg fill="#000000" xmlns="http://www.w3.org/2000/svg"  viewBox="0 0 80 80" width="160px" height="160px"><path d="M 40 7 C 21.786448 7 7 21.786448 7 40 C 7 40.038635 7.0018202 40.07663 7.0019531 40.115234 A 1.0001 1.0001 0 0 0 7.0195312 40.771484 C 7.4313745 58.628084 22.045163 73 40 73 C 57.954182 73 72.567604 58.629132 72.980469 40.773438 A 1.0001 1.0001 0 0 0 72.996094 40.117188 C 72.996231 40.077913 73 40.039306 73 40 C 73 21.786448 58.213552 7 40 7 z M 40 9 C 56.900036 9 70.612868 22.496006 70.982422 39.306641 C 69.982327 39.204652 68.787335 39.103385 67.193359 39.046875 C 65.216686 38.976799 62.770325 38.98226 59.929688 39.128906 C 59.949831 38.808278 59.979634 38.490633 59.980469 38.164062 C 60.12717 35.42322 59.214532 32.851617 57.677734 30.583984 C 58.417459 27.990954 59.037475 23.812982 57.230469 20.519531 L 56.945312 20 L 56.353516 20 C 52.319771 20 49.524906 22.228133 48.042969 23.525391 C 45.688808 22.575266 43.008373 22 40.044922 22 C 37.073844 22 34.374496 22.577853 31.914062 23.523438 C 30.478353 22.247174 27.80466 20 23.771484 20 L 23.201172 20 L 22.910156 20.492188 C 20.954532 23.803064 21.710456 27.936163 22.445312 30.591797 C 20.898443 32.886437 19.996094 35.535357 19.996094 38.123047 C 19.996094 38.46359 20.023912 38.794816 20.044922 39.128906 C 17.21527 38.983586 14.777407 38.977007 12.806641 39.046875 C 11.212665 39.103385 10.017673 39.204652 9.0175781 39.306641 C 9.3871319 22.496006 23.099964 9 40 9 z M 24.423828 22.095703 C 27.581537 22.354344 29.813864 24.260864 31.048828 25.369141 L 31.517578 25.789062 L 32.099609 25.546875 C 34.464176 24.562591 37.105127 24 40.044922 24 C 42.984717 24 45.622553 24.566669 47.820312 25.539062 L 48.412109 25.800781 L 48.892578 25.367188 C 50.092293 24.289724 52.503995 22.365534 55.681641 22.099609 C 56.734998 24.671052 56.317655 28.420851 55.691406 30.447266 L 55.542969 30.925781 L 55.837891 31.330078 C 57.335318 33.393118 58.118412 35.664614 57.986328 38.068359 L 57.984375 38.095703 L 57.984375 38.123047 C 57.984375 41.930586 56.598944 45.04844 53.693359 47.318359 C 50.787787 49.588287 46.269477 51 39.990234 51 C 33.710992 51 29.192694 49.588279 26.287109 47.318359 C 23.381525 45.04844 21.996094 41.930586 21.996094 38.123047 C 21.996094 35.845982 22.80388 33.376248 24.289062 31.330078 L 24.576172 30.933594 L 24.439453 30.462891 C 23.790343 28.231018 23.2889 24.635971 24.423828 22.095703 z M 37.820312 27.109375 C 37.270313 27.160375 36.869687 27.649938 36.929688 28.210938 C 36.978687 28.720938 37.410875 29.099609 37.921875 29.099609 L 38.021484 29.099609 C 38.570484 29.039609 38.971875 28.55 38.921875 28 C 38.860875 27.45 38.371313 27.049375 37.820312 27.109375 z M 42.150391 27.109375 C 41.600391 27.050375 41.110547 27.45 41.060547 28 C 41.000547 28.55 41.398219 29.039609 41.949219 29.099609 C 41.989219 29.099609 42.020781 29.100609 42.050781 29.099609 C 42.560781 29.099609 42.990781 28.719219 43.050781 28.199219 C 43.100781 27.648219 42.701391 27.160375 42.150391 27.109375 z M 46.005859 27.943359 C 45.618203 27.975094 45.266172 28.233359 45.138672 28.630859 C 44.968672 29.161859 45.249297 29.720625 45.779297 29.890625 C 45.879297 29.930625 45.989844 29.938453 46.089844 29.939453 C 46.509844 29.939453 46.898063 29.679766 47.039062 29.259766 C 47.218063 28.728766 46.928438 28.170234 46.398438 27.990234 C 46.268437 27.947484 46.135078 27.932781 46.005859 27.943359 z M 33.962891 27.955078 C 33.833531 27.943672 33.700563 27.9575 33.570312 28 C 33.040312 28.18 32.759687 28.740531 32.929688 29.269531 C 33.068688 29.688531 33.460859 29.950172 33.880859 29.951172 C 33.980859 29.951172 34.089453 29.940391 34.189453 29.900391 C 34.720453 29.730391 35.000078 29.161625 34.830078 28.640625 C 34.702578 28.250625 34.350969 27.989297 33.962891 27.955078 z M 52.578125 32.601562 C 52.450625 32.625391 52.325938 32.675 52.210938 32.75 C 51.750937 33.06 51.619687 33.680625 51.929688 34.140625 C 52.119687 34.430625 52.439766 34.589844 52.759766 34.589844 C 52.950766 34.589844 53.148359 34.529922 53.318359 34.419922 C 53.769359 34.108922 53.899844 33.489297 53.589844 33.029297 C 53.364844 32.683547 52.960625 32.530078 52.578125 32.601562 z M 27.402344 32.626953 C 27.019844 32.553875 26.615625 32.713594 26.390625 33.058594 C 26.080625 33.518594 26.209922 34.138219 26.669922 34.449219 C 26.839922 34.559219 27.030703 34.609375 27.220703 34.609375 C 27.540703 34.609375 27.860547 34.450156 28.060547 34.160156 C 28.360547 33.700156 28.229531 33.079297 27.769531 32.779297 C 27.654531 32.701547 27.529844 32.651312 27.402344 32.626953 z M 54.048828 36.5 C 53.966016 36.495875 53.883281 36.502281 53.800781 36.519531 C 53.740781 36.530531 53.679141 36.550078 53.619141 36.580078 C 53.558141 36.600078 53.500453 36.629922 53.439453 36.669922 C 53.390453 36.709922 53.339062 36.749063 53.289062 36.789062 C 53.199063 36.889062 53.130078 36.999141 53.080078 37.119141 C 53.030078 37.239141 53 37.37 53 37.5 C 53 37.63 53.030078 37.760859 53.080078 37.880859 C 53.130078 38.000859 53.199063 38.109938 53.289062 38.210938 C 53.389062 38.300938 53.499141 38.369922 53.619141 38.419922 C 53.739141 38.478922 53.87 38.5 54 38.5 C 54.13 38.5 54.260859 38.478922 54.380859 38.419922 C 54.500859 38.369922 54.609938 38.300938 54.710938 38.210938 C 54.800937 38.109938 54.869922 38.000859 54.919922 37.880859 C 54.969922 37.760859 55 37.63 55 37.5 C 55 37.24 54.890938 36.978063 54.710938 36.789062 C 54.538437 36.615813 54.297266 36.512375 54.048828 36.5 z M 26.048828 36.503906 C 25.966016 36.499359 25.883281 36.504531 25.800781 36.519531 C 25.740781 36.530531 25.679141 36.550078 25.619141 36.580078 C 25.558141 36.600078 25.500453 36.629922 25.439453 36.669922 C 25.390453 36.699922 25.339063 36.749063 25.289062 36.789062 C 25.199062 36.889062 25.130078 36.989141 25.080078 37.119141 C 25.020078 37.239141 25 37.37 25 37.5 C 25 37.77 25.099062 38.020938 25.289062 38.210938 C 25.389062 38.300938 25.499141 38.369922 25.619141 38.419922 C 25.739141 38.469922 25.87 38.5 26 38.5 C 26.27 38.5 26.520937 38.399938 26.710938 38.210938 C 26.899938 38.020938 27 37.77 27 37.5 C 27 37.37 26.969922 37.239141 26.919922 37.119141 C 26.869922 36.989141 26.800937 36.889063 26.710938 36.789062 C 26.538438 36.615813 26.297266 36.517547 26.048828 36.503906 z M 52.962891 40.408203 C 52.579875 40.335547 52.172703 40.494844 51.939453 40.839844 C 51.639453 41.299844 51.758516 41.920703 52.228516 42.220703 C 52.398516 42.340703 52.589297 42.390625 52.779297 42.390625 C 53.098297 42.390625 53.420375 42.229453 53.609375 41.939453 C 53.910375 41.479453 53.790078 40.860547 53.330078 40.560547 C 53.215078 40.483047 53.090563 40.432422 52.962891 40.408203 z M 27.046875 40.427734 C 26.919219 40.452094 26.794688 40.502328 26.679688 40.580078 C 26.219688 40.890078 26.099156 41.510703 26.410156 41.970703 C 26.600156 42.260703 26.919234 42.410156 27.240234 42.410156 C 27.430234 42.410156 27.621016 42.359234 27.791016 42.240234 C 28.251016 41.939234 28.381312 41.319375 28.070312 40.859375 C 27.837812 40.514375 27.429844 40.354656 27.046875 40.427734 z M 16.523438 41.007812 C 17.676822 41.022639 18.948072 41.068257 20.294922 41.142578 C 20.424597 41.787117 20.604568 42.411339 20.820312 43.019531 C 15.008104 43.115331 11.141178 43.859052 9.3046875 44.306641 C 9.1681441 43.322767 9.0752982 42.323786 9.0332031 41.3125 C 10.650257 41.141079 13.099664 40.963801 16.523438 41.007812 z M 63.476562 41.007812 C 66.900336 40.963801 69.349743 41.141079 70.966797 41.3125 C 70.924702 42.323786 70.831856 43.322767 70.695312 44.306641 C 68.856553 43.858498 64.982201 43.113785 59.158203 43.019531 C 59.373358 42.412089 59.55029 41.788199 59.679688 41.144531 C 61.036384 41.069294 62.315797 41.022734 63.476562 41.007812 z M 49.648438 43.277344 C 49.520859 43.302406 49.39625 43.352187 49.28125 43.429688 C 48.82025 43.729688 48.699766 44.360547 49.009766 44.810547 C 49.199766 45.100547 49.510797 45.260719 49.841797 45.261719 C 50.032797 45.261719 50.220625 45.201797 50.390625 45.091797 C 50.850625 44.781797 50.971875 44.161172 50.671875 43.701172 C 50.438625 43.356172 50.031172 43.202156 49.648438 43.277344 z M 30.373047 43.291016 C 29.990031 43.219766 29.582859 43.37375 29.349609 43.71875 C 29.049609 44.17875 29.170859 44.799375 29.630859 45.109375 C 29.800859 45.220375 29.989687 45.270531 30.179688 45.269531 C 30.509688 45.269531 30.819531 45.120078 31.019531 44.830078 C 31.319531 44.370078 31.200234 43.750453 30.740234 43.439453 C 30.625234 43.364453 30.500719 43.314766 30.373047 43.291016 z M 21.724609 45.003906 C 22.54528 46.470718 23.644095 47.791014 25.056641 48.894531 C 27.342767 50.680514 30.381632 51.914358 34.134766 52.535156 C 33.639684 52.944084 33.180911 53.413618 32.767578 53.923828 C 32.512337 54.135597 31.666066 54.514856 30.597656 54.708984 C 29.453287 54.916914 28.102926 55 27 55 C 25.130088 55 23.805896 53.798626 22.568359 52.318359 C 21.922072 51.460526 21.121455 50.717937 20.34375 50.146484 C 19.551963 49.564685 18.8693 49.142618 18.080078 49.013672 L 18 49 L 17.917969 49 C 17.32316 49 16.791336 49.05994 16.326172 49.580078 C 16.09359 49.840145 15.935552 50.31678 16.039062 50.722656 C 16.142574 51.128532 16.404472 51.380113 16.650391 51.541016 L 16.652344 51.541016 C 18.787436 52.934722 19.15975 55.766626 20.339844 57.925781 C 21.409937 60.011763 23.700647 61 26.117188 61 L 30.013672 61 C 30.010602 61.094707 30 61.191311 30 61.285156 L 30 69.345703 C 19.711333 65.844879 11.858961 57.098992 9.6367188 46.28125 C 11.364 45.851241 15.440585 45.02885 21.724609 45.003906 z M 58.253906 45.003906 C 64.55038 45.026952 68.63396 45.850733 70.363281 46.28125 C 68.141039 57.098992 60.288667 65.844879 50 69.345703 L 50 61.285156 C 50 59.110351 49.237195 56.660542 47.925781 54.650391 C 47.400862 53.845788 46.769196 53.106559 46.050781 52.501953 C 49.709874 51.870076 52.679103 50.64817 54.923828 48.894531 C 56.336496 47.790918 57.434003 46.471139 58.253906 45.003906 z M 20.359375 52.929688 C 20.570019 53.15193 20.826396 53.321052 21 53.554688 L 21.015625 53.578125 L 21.035156 53.599609 C 22.387615 55.217344 24.265912 57 27 57 C 28.199074 57 29.635197 56.91755 30.955078 56.677734 C 31.004354 56.668781 31.050618 56.657594 31.099609 56.648438 C 30.747796 57.416017 30.471357 58.207251 30.285156 59 L 26.117188 59 C 24.220232 59 22.776475 58.299344 22.117188 57.009766 L 22.109375 56.996094 L 22.101562 56.982422 C 21.619315 56.105606 21.18954 54.508371 20.359375 52.929688 z M 38.050781 53 L 42.25 53 C 43.735983 53 45.161413 54.073588 46.25 55.742188 C 47.338587 57.410787 48 59.602962 48 61.285156 L 48 69.955078 C 45.447789 70.633961 42.767262 71 40 71 C 37.232738 71 34.552211 70.633961 32 69.955078 L 32 61.285156 C 32 59.628889 32.724365 57.439673 33.884766 55.765625 C 33.999613 55.599941 34.120684 55.444795 34.242188 55.291016 C 34.270201 55.261922 34.300945 55.23745 34.328125 55.207031 L 34.314453 55.195312 C 35.407223 53.848822 36.741554 53 38.050781 53 z M 36 60 A 1 1 0 0 0 35 61 A 1 1 0 0 0 36 62 A 1 1 0 0 0 37 61 A 1 1 0 0 0 36 60 z M 40 60 A 1 1 0 0 0 39 61 A 1 1 0 0 0 40 62 A 1 1 0 0 0 41 61 A 1 1 0 0 0 40 60 z M 44 60 A 1 1 0 0 0 43 61 A 1 1 0 0 0 44 62 A 1 1 0 0 0 45 61 A 1 1 0 0 0 44 60 z M 36 64 A 1 1 0 0 0 35 65 A 1 1 0 0 0 36 66 A 1 1 0 0 0 37 65 A 1 1 0 0 0 36 64 z M 40 64 A 1 1 0 0 0 39 65 A 1 1 0 0 0 40 66 A 1 1 0 0 0 41 65 A 1 1 0 0 0 40 64 z M 44 64 A 1 1 0 0 0 43 65 A 1 1 0 0 0 44 66 A 1 1 0 0 0 45 65 A 1 1 0 0 0 44 64 z M 36 68 A 1 1 0 0 0 35 69 A 1 1 0 0 0 36 70 A 1 1 0 0 0 37 69 A 1 1 0 0 0 36 68 z M 40 68 A 1 1 0 0 0 39 69 A 1 1 0 0 0 40 70 A 1 1 0 0 0 41 69 A 1 1 0 0 0 40 68 z M 44 68 A 1 1 0 0 0 43 69 A 1 1 0 0 0 44 70 A 1 1 0 0 0 45 69 A 1 1 0 0 0 44 68 z"/></svg>