<svg fill="#000000" xmlns="http://www.w3.org/2000/svg"  viewBox="0 0 80 80" width="160px" height="160px"><path d="M 40 7 C 21.786448 7 7 21.786448 7 40 C 7 58.213552 21.786448 73 40 73 C 58.213552 73 73 58.213552 73 40 C 73 21.786448 58.213552 7 40 7 z M 40 9 C 57.132672 9 71 22.867328 71 40 C 71 57.132672 57.132672 71 40 71 C 22.867328 71 9 57.132672 9 40 C 9 22.867328 22.867328 9 40 9 z M 35.708984 23 C 26.959978 23 20.351524 24.538416 20.064453 24.605469 L 20.0625 24.605469 C 17.936559 25.106631 16.612802 27.268865 17.103516 29.402344 C 17.579487 31.473012 19.613291 32.790323 21.675781 32.419922 A 1.0001 1.0001 0 0 0 21.640625 30.421875 A 1.0001 1.0001 0 0 0 21.400391 30.449219 C 20.332825 30.687458 19.302768 30.042822 19.052734 28.955078 C 18.801579 27.863129 19.456456 26.804286 20.519531 26.552734 C 20.780508 26.491787 27.193991 25 35.708984 25 L 35.810547 25 C 42.986947 25.0099 53.366501 26.135501 62.023438 31.273438 C 62.971061 31.836382 63.286559 33.052163 62.726562 34.015625 C 62.35349 34.657877 61.698258 35 61.027344 35 A 1.0001 1.0001 0 1 0 61.027344 37 A 1.0001 1.0001 0 0 0 61.162109 36.990234 C 62.479209 36.944467 63.746383 36.239564 64.455078 35.019531 C 65.553749 33.127216 64.924747 30.669462 63.044922 29.552734 C 53.898168 24.123454 43.191673 23.010139 35.8125 23 L 35.708984 23 z M 33.695312 29.03125 L 32.892578 29.431641 L 32.736328 30.314453 L 33.347656 30.96875 L 33.695312 31.03125 L 34.496094 30.628906 L 34.654297 29.748047 L 34.041016 29.09375 L 33.695312 29.03125 z M 37.742188 29.037109 L 36.941406 29.4375 L 36.783203 30.320312 L 37.394531 30.974609 L 37.742188 31.037109 L 38.542969 30.634766 L 38.701172 29.753906 L 38.087891 29.099609 L 37.742188 29.037109 z M 29.654297 29.279297 L 28.853516 29.681641 L 28.695312 30.5625 L 29.308594 31.216797 L 29.654297 31.279297 L 30.457031 30.878906 L 30.613281 29.996094 L 30.001953 29.341797 L 29.654297 29.279297 z M 41.779297 29.298828 L 40.978516 29.699219 L 40.820312 30.582031 L 41.433594 31.236328 L 41.779297 31.298828 L 42.580078 30.896484 L 42.738281 30.015625 L 42.126953 29.361328 L 41.779297 29.298828 z M 25.632812 29.720703 L 24.832031 30.123047 L 24.673828 31.005859 L 25.285156 31.660156 L 25.632812 31.720703 L 26.433594 31.320312 L 26.591797 30.4375 L 25.980469 29.783203 L 25.632812 29.720703 z M 45.792969 29.818359 L 44.992188 30.21875 L 44.833984 31.101562 L 45.445312 31.755859 L 45.792969 31.818359 L 46.59375 31.416016 L 46.751953 30.535156 L 46.140625 29.880859 L 45.792969 29.818359 z M 49.751953 30.652344 L 48.951172 31.052734 L 48.792969 31.935547 L 49.40625 32.589844 L 49.751953 32.652344 L 50.552734 32.25 L 50.710938 31.367188 L 50.099609 30.712891 L 49.751953 30.652344 z M 53.621094 31.835938 L 52.820312 32.236328 L 52.662109 33.119141 L 53.273438 33.773438 L 53.621094 33.835938 L 54.421875 33.433594 L 54.580078 32.550781 L 53.96875 31.896484 L 53.621094 31.835938 z M 57.349609 33.40625 L 56.548828 33.808594 L 56.390625 34.691406 L 57.001953 35.345703 L 57.349609 35.40625 L 58.150391 35.005859 L 58.308594 34.123047 L 57.695312 33.46875 L 57.349609 33.40625 z M 35.376953 35.001953 C 31.550839 35.034453 28.244309 35.40193 25.833984 35.777344 C 23.423659 36.152758 22.007129 36.507168 21.642578 36.613281 C 19.712123 37.172949 18.596911 39.22694 19.136719 41.171875 C 19.648811 43.014378 21.470157 44.352557 23.386719 43.935547 A 1.0001 1.0001 0 0 0 23.332031 41.9375 A 1.0001 1.0001 0 0 0 23.029297 41.980469 C 22.242393 42.190507 21.325515 41.576014 21.064453 40.636719 C 20.808422 39.714234 21.324737 38.78626 22.199219 38.533203 L 22.201172 38.533203 C 22.262622 38.515313 23.811403 38.116992 26.142578 37.753906 C 28.473753 37.39082 31.684693 37.033451 35.392578 37.001953 C 42.155967 36.944843 50.501136 37.946566 58.21875 42.857422 C 58.995843 43.351422 59.239023 44.40127 58.746094 45.208984 C 58.434424 45.71863 57.866839 46 57.324219 46 A 1.0001 1.0001 0 1 0 57.324219 48 A 1.0001 1.0001 0 0 0 57.457031 47.992188 C 58.632967 47.949222 59.785889 47.343189 60.453125 46.251953 L 60.453125 46.25 C 61.504196 44.527761 60.989923 42.249922 59.291016 41.169922 C 51.12663 35.974778 42.351564 34.943061 35.376953 35.001953 z M 34.933594 40.537109 L 34.132812 40.9375 L 33.974609 41.820312 L 34.587891 42.474609 L 34.933594 42.537109 L 35.736328 42.134766 L 35.892578 41.253906 L 35.28125 40.599609 L 34.933594 40.537109 z M 38.832031 40.574219 L 38.03125 40.974609 L 37.873047 41.857422 L 38.484375 42.511719 L 38.832031 42.574219 L 39.632812 42.171875 L 39.791016 41.291016 L 39.179688 40.636719 L 38.832031 40.574219 z M 31.042969 40.761719 L 30.242188 41.164062 L 30.083984 42.044922 L 30.695312 42.699219 L 31.042969 42.761719 L 31.84375 42.359375 L 32.001953 41.478516 L 31.388672 40.824219 L 31.042969 40.761719 z M 42.712891 40.945312 L 41.910156 41.345703 L 41.753906 42.228516 L 42.365234 42.882812 L 42.712891 42.945312 L 43.513672 42.542969 L 43.671875 41.662109 L 43.058594 41.007812 L 42.712891 40.945312 z M 27.169922 41.212891 L 26.369141 41.615234 L 26.210938 42.496094 L 26.822266 43.150391 L 27.169922 43.212891 L 27.970703 42.8125 L 28.128906 41.929688 L 27.517578 41.275391 L 27.169922 41.212891 z M 46.535156 41.707031 L 45.734375 42.107422 L 45.576172 42.990234 L 46.1875 43.644531 L 46.535156 43.707031 L 47.335938 43.304688 L 47.494141 42.423828 L 46.880859 41.767578 L 46.535156 41.707031 z M 50.240234 42.912109 L 49.439453 43.3125 L 49.28125 44.195312 L 49.892578 44.849609 L 50.240234 44.912109 L 51.041016 44.509766 L 51.199219 43.626953 L 50.585938 42.972656 L 50.240234 42.912109 z M 53.791016 44.515625 L 52.990234 44.916016 L 52.832031 45.798828 L 53.443359 46.453125 L 53.791016 46.515625 L 54.591797 46.113281 L 54.75 45.232422 L 54.138672 44.576172 L 53.791016 44.515625 z M 35.357422 47.001953 C 28.613607 47.002953 23.638252 48.54657 23.3125 48.650391 C 21.58246 49.193917 20.580148 51.057189 21.179688 52.759766 C 21.755338 54.394502 23.528865 55.261494 25.201172 54.835938 C 25.201792 54.83578 25.202505 54.836096 25.203125 54.835938 A 1.0001 1.0001 0 0 0 25.103516 52.839844 A 1.0001 1.0001 0 0 0 24.779297 52.890625 C 24.050653 53.114767 23.287308 52.728568 23.064453 52.095703 C 22.839993 51.45828 23.17215 50.791067 23.912109 50.558594 L 23.914062 50.556641 L 23.916016 50.556641 C 24.008856 50.527041 28.920686 49.00293 35.357422 49.001953 L 35.359375 49.001953 C 42.297666 48.999053 48.153238 50.361382 53.416016 53.685547 C 54.051971 54.08779 54.18997 54.786211 53.787109 55.361328 C 53.511723 55.75156 53.039749 56 52.642578 56 A 1.0001 1.0001 0 1 0 52.642578 58 A 1.0001 1.0001 0 0 0 52.779297 57.990234 C 53.850776 57.944452 54.813206 57.376509 55.421875 56.513672 L 55.423828 56.513672 C 56.461439 55.037127 56.015719 52.963437 54.486328 51.996094 L 54.484375 51.996094 C 48.861152 48.444258 42.561131 46.998897 35.357422 47.001953 z M 37.193359 51.361328 L 36.392578 51.763672 L 36.234375 52.644531 L 36.845703 53.298828 L 37.193359 53.361328 L 37.994141 52.960938 L 38.152344 52.078125 L 37.541016 51.423828 L 37.193359 51.361328 z M 33.117188 51.394531 L 32.314453 51.796875 L 32.158203 52.677734 L 32.769531 53.333984 L 33.117188 53.394531 L 33.917969 52.994141 L 34.076172 52.111328 L 33.462891 51.457031 L 33.117188 51.394531 z M 41.248047 51.789062 L 40.447266 52.191406 L 40.289062 53.072266 L 40.900391 53.726562 L 41.248047 53.789062 L 42.048828 53.386719 L 42.207031 52.505859 L 41.59375 51.851562 L 41.248047 51.789062 z M 29.070312 51.886719 L 28.269531 52.287109 L 28.111328 53.169922 L 28.722656 53.824219 L 29.070312 53.886719 L 29.871094 53.484375 L 30.029297 52.603516 L 29.416016 51.949219 L 29.070312 51.886719 z M 45.205078 52.763672 L 44.402344 53.166016 L 44.246094 54.046875 L 44.857422 54.701172 L 45.205078 54.763672 L 46.005859 54.363281 L 46.164062 53.480469 L 45.550781 52.826172 L 45.205078 52.763672 z M 48.980469 54.294922 L 48.179688 54.695312 L 48.021484 55.578125 L 48.634766 56.232422 L 48.980469 56.294922 L 49.78125 55.892578 L 49.939453 55.009766 L 49.328125 54.355469 L 48.980469 54.294922 z"/></svg>